<svg xmlns="http://www.w3.org/2000/svg" width="20" height="20" viewBox="0 0 20 20">
    <path fill="#4D4E4F" fill-rule="evenodd" d="
	M17 18H3a1 1 0 0 1-1-1V3a1 1 0 0 1 1-1h14a1 1 0 0 1 1 1v14a1 1 0 0 1-1 1M0 2v16a2 2 0 0 0 2 2h16a2 2 0 0 0 2-2V2a2 2 0 0 0-2-2H2a2 2 0 0 0-2 2
	M 10, 5
	m -1.7, 0
	a 1.7, 1.7 0 1, 0 3.4,0
	a 1.7, 1.7 0 1, 0 -3.4,0 z 
            
            
	M 10, 10
	m -1.7, 0
	a 1.7, 1.7 0 1, 0 3.4,0
	a 1.7, 1.7 0 1, 0 -3.4,0 z
            
	M 10, 15
	m -1.7, 0
	a 1.7, 1.7 0 1, 0 3.4,0
	a 1.7, 1.7 0 1, 0 -3.4,0 z
" opacity=".401"/>
</svg>